<?xml version="1.0" encoding="UTF-8"?>
<svg width="16px" height="16px" viewBox="0 0 16 16" version="1.1" xmlns="http://www.w3.org/2000/svg" xmlns:xlink="http://www.w3.org/1999/xlink">
    <!-- Generator: Sketch 58 (84663) - https://sketch.com -->
    <title>政务服务16px&amp;蓝色</title>
    <desc>Created with Sketch.</desc>
    <g id="政务服务16px&amp;蓝色" stroke="none" stroke-width="1" fill="none" fill-rule="evenodd">
        <g>
            <polygon id="路径" points="0 0 16 0 16 16 0 16"></polygon>
            <path d="M16,1 L16,12 L9,12 L9,14 L13,14 L13,16 L3,16 L3,14 L7,14 L7,12 L0,12 L0,1 L16,1 Z M14,3 L2,3 L2,10 L14,10 L14,3 Z M8,3.5 L8.7275,5.75 L11,5.75 L9.1475,7.07 L9.8525,9.2525 L8,7.9025 L6.1475,9.2525 L6.8525,7.07 L5,5.75 L7.2725,5.75 L8,3.5 Z" id="形状结合" fill="#00A4FF"></path>
        </g>
    </g>
</svg>