<?xml version="1.0" encoding="utf-8"?>
<!-- Generator: Adobe Illustrator 21.0.0, SVG Export Plug-In . SVG Version: 6.00 Build 0)  -->
<svg version="1.1" id="图层_1" xmlns="http://www.w3.org/2000/svg" xmlns:xlink="http://www.w3.org/1999/xlink" x="0px" y="0px"
	 width="16px" height="16px" viewBox="0 0 16 16" style="enable-background:new 0 0 16 16;" xml:space="preserve">
<style type="text/css">
	.st0{fill:#00A4FF;}
	.st1{fill:#7C848E;}
</style>
<path class="st0" d="M13.776,10.114L13.19,7.342C14.279,6.627,15,5.4,15,4c0-2.209-1.791-4-4-4S7,1.791,7,4
	c0,0.707,0.199,1.361,0.52,1.937L5.07,8.388C4.596,8.148,4.067,8,3.5,8C1.567,8,0,9.567,0,11.5S1.567,15,3.5,15
	c1.34,0,2.491-0.762,3.079-1.869l3.522,0.602C10.429,15.034,11.598,16,13,16c1.657,0,3-1.343,3-3
	C16,11.613,15.054,10.458,13.776,10.114z M11.765,10.272c-0.652,0.296-1.175,0.816-1.477,1.464l-3.321-0.567
	c-0.049-0.509-0.202-0.983-0.445-1.405l2.375-2.375C9.509,7.77,10.226,8,11,8c0.096,0,0.185-0.022,0.279-0.028L11.765,10.272z M11,2
	c1.103,0,2,0.897,2,2s-0.897,2-2,2S9,5.103,9,4S9.897,2,11,2z M3.5,13C2.673,13,2,12.327,2,11.5S2.673,10,3.5,10S5,10.673,5,11.5
	S4.327,13,3.5,13z M13,14c-0.551,0-1-0.449-1-1s0.449-1,1-1s1,0.449,1,1S13.551,14,13,14z"/>
</svg>
