<?xml version="1.0" encoding="UTF-8"?>
<svg width="16px" height="16px" viewBox="0 0 16 16" version="1.1" xmlns="http://www.w3.org/2000/svg" xmlns:xlink="http://www.w3.org/1999/xlink">
    <!-- Generator: Sketch 52.6 (67491) - http://www.bohemiancoding.com/sketch -->
    <title>建筑服务-16px</title>
    <desc>Created with Sketch.</desc>
    <g id="建筑服务-16px" stroke="none" stroke-width="1" fill="none" fill-rule="evenodd">
        <rect id="Rectangle-Copy" fill="#444444" opacity="0" x="0" y="0" width="16" height="16"></rect>
        <g id="00be2e704b32895dfe1993545e6f3ef3" fill="#00A4FF">
            <path d="M15,14 L15,8 L15,6 L11,6 L11,2 L11,1.4 L11,0 L1,0 L1,1.6 L1,2 L1,14 L0,14 L0,16 L1,16 L3,16 L9,16 L11,16 L13,16 L15,16 L16,16 L16,14 L15,14 Z M3,14 L3,2 L9,2 L9,14 L3,14 Z M11,14 L11,8 L13,8 L13,14 L11,14 Z" id="Shape" fill-rule="nonzero"></path>
            <rect id="Rectangle" x="5" y="4" width="2" height="2"></rect>
            <rect id="Rectangle" x="5" y="7" width="2" height="2"></rect>
            <rect id="Rectangle" x="5" y="10" width="2" height="2"></rect>
        </g>
    </g>
</svg>