<?xml version="1.0" encoding="UTF-8"?>
<svg width="16px" height="16px" viewBox="0 0 16 16" version="1.1" xmlns="http://www.w3.org/2000/svg" xmlns:xlink="http://www.w3.org/1999/xlink">
    <!-- Generator: Sketch 52.6 (67491) - http://www.bohemiancoding.com/sketch -->
    <title>企业通信</title>
    <desc>Created with Sketch.</desc>
    <defs>
        <polygon id="path-1" points="0.0002 0 16 0 16 14.4199 0.0002 14.4199"></polygon>
    </defs>
    <g id="企业通信" stroke="none" stroke-width="1" fill="none" fill-rule="evenodd">
        <g id="Group-8">
            <path d="M3.5001,16 L12.5001,16 L8.0001,8 L3.5001,16 Z M8.0001,12.079 L9.0801,14 L6.9201,14 L8.0001,12.079 Z" id="Fill-1" fill="#00A4FF"></path>
            <g id="Group-7">
                <g id="Group-4">
                    <mask id="mask-2" fill="white">
                        <use xlink:href="#path-1"></use>
                    </mask>
                    <g id="Clip-3"></g>
                    <path d="M3.2412,14.4199 L4.2302,12.6619 C2.8712,11.5609 2.0002,9.8809 2.0002,7.9999 C2.0002,4.6909 4.6912,1.9999 8.0002,1.9999 C11.3082,1.9999 14.0002,4.6909 14.0002,7.9999 C14.0002,9.8809 13.1292,11.5609 11.7692,12.6619 L12.7592,14.4199 C14.7212,12.9619 16.0002,10.6329 16.0002,7.9999 C16.0002,3.5819 12.4182,-0.0001 8.0002,-0.0001 C3.5812,-0.0001 0.0002,3.5819 0.0002,7.9999 C0.0002,10.6329 1.2782,12.9619 3.2412,14.4199" id="Fill-2" fill="#00A4FF" mask="url(#mask-2)"></path>
                </g>
                <path d="M5.2329,10.8789 L6.2839,9.0109 C6.1079,8.7129 5.9999,8.3699 5.9999,7.9999 C5.9999,6.8969 6.8979,5.9999 7.9999,5.9999 C9.1029,5.9999 9.9999,6.8969 9.9999,7.9999 C9.9999,8.3699 9.8919,8.7129 9.7159,9.0109 L10.7669,10.8789 C11.5249,10.1509 11.9999,9.1329 11.9999,7.9999 C11.9999,5.7909 10.2089,3.9999 7.9999,3.9999 C5.7909,3.9999 3.9999,5.7909 3.9999,7.9999 C3.9999,9.1329 4.4759,10.1509 5.2329,10.8789" id="Fill-5" fill="#00A4FF"></path>
            </g>
        </g>
    </g>
</svg>