<?xml version="1.0" encoding="UTF-8"?>
<svg width="16px" height="16px" viewBox="0 0 16 16" version="1.1" xmlns="http://www.w3.org/2000/svg" xmlns:xlink="http://www.w3.org/1999/xlink">
    <!-- Generator: Sketch 52.2 (67145) - http://www.bohemiancoding.com/sketch -->
    <title>网络</title>
    <desc>Created with Sketch.</desc>
    <g id="网络" stroke="none" stroke-width="1" fill="none" fill-rule="evenodd">
        <path d="M10.347,13.521 C11.008,12.129 11.434,10.607 11.559,9 L13.91,9 C13.566,11.038 12.197,12.731 10.347,13.521 Z M2.091,9 L4.441,9 C4.566,10.607 4.993,12.129 5.654,13.521 C3.804,12.731 2.435,11.038 2.091,9 Z M5.654,2.478 C4.993,3.87 4.566,5.392 4.441,7 L2.091,7 C2.435,4.961 3.804,3.268 5.654,2.478 Z M9.554,9 C9.399,10.705 8.847,12.294 8,13.687 C7.154,12.294 6.601,10.705 6.447,9 L9.554,9 Z M6.447,7 C6.601,5.294 7.154,3.705 8,2.313 C8.847,3.705 9.399,5.294 9.554,7 L6.447,7 Z M13.91,7 L11.559,7 C11.434,5.392 11.008,3.87 10.347,2.478 C12.197,3.268 13.566,4.961 13.91,7 Z M8,0 C3.582,0 0,3.581 0,8 C0,12.418 3.582,16 8,16 C12.419,16 16,12.418 16,8 C16,3.581 12.419,0 8,0 Z" id="Fill-1-Copy" fill="#00A4FF"></path>
    </g>
</svg>