<?xml version="1.0" encoding="UTF-8"?>
<svg width="16px" height="16px" viewBox="0 0 16 16" version="1.1" xmlns="http://www.w3.org/2000/svg" xmlns:xlink="http://www.w3.org/1999/xlink">
    <!-- Generator: Sketch 52.2 (67145) - http://www.bohemiancoding.com/sketch -->
    <title>安全服务</title>
    <desc>Created with Sketch.</desc>
    <g id="安全服务" stroke="none" stroke-width="1" fill="none" fill-rule="evenodd">
        <path d="M9,6 L12,6 L12,8 L9,8 L9,11 L7,11 L7,8 L4,8 L4,6 L7,6 L7,4 L9,4 L9,6 Z M8,13.934 C3.268,12.589 3.013,8.803 3,8.4 L3,3 L13,3 L13,8.362 C12.987,8.802 12.732,12.589 8,13.934 Z M1,1 L1,8.4 C1,8.4 1.054,14.359 8,16 C14.946,14.359 15,8.4 15,8.4 L15,1 L1,1 Z" id="Fill-1" fill="#00A4FF"></path>
    </g>
</svg>