<?xml version="1.0" encoding="UTF-8"?>
<svg width="16px" height="16px" viewBox="0 0 16 16" version="1.1" xmlns="http://www.w3.org/2000/svg" xmlns:xlink="http://www.w3.org/1999/xlink">
    <!-- Generator: Sketch 52.2 (67145) - http://www.bohemiancoding.com/sketch -->
    <title>量子技术</title>
    <desc>Created with Sketch.</desc>
    <g id="量子技术" stroke="none" stroke-width="1" fill="none" fill-rule="evenodd">
        <g id="Group-9" fill="#00A4FF">
            <path d="M4.5,0 C3.119,0 2,1.119 2,2.5 C2,3.881 3.119,5 4.5,5 C5.881,5 7,3.881 7,2.5 C7,1.119 5.881,0 4.5,0 M4.5,2 C4.776,2 5,2.224 5,2.5 C5,2.776 4.776,3 4.5,3 C4.224,3 4,2.776 4,2.5 C4,2.224 4.224,2 4.5,2" id="Fill-1"></path>
            <path d="M11.5,11 C10.119,11 9,12.119 9,13.5 C9,14.881 10.119,16 11.5,16 C12.881,16 14,14.881 14,13.5 C14,12.119 12.881,11 11.5,11 M11.5,13 C11.775,13 12,13.225 12,13.5 C12,13.775 11.775,14 11.5,14 C11.225,14 11,13.775 11,13.5 C11,13.225 11.225,13 11.5,13" id="Fill-3"></path>
            <path d="M12,1 L8.004,1 L8.004,3 L10.84,3 L13.696,8 L11.956,11.046 C12.655,11.175 13.249,11.596 13.613,12.177 L16,8 L12,1 Z" id="Fill-5"></path>
            <path d="M8,13 L5.161,13 L2.304,8 L4.044,4.954 C3.345,4.825 2.751,4.405 2.387,3.823 L0,8 L4,15 L8,15 L8,13 Z" id="Fill-7"></path>
        </g>
    </g>
</svg>