<?xml version="1.0" encoding="UTF-8"?>
<svg width="16px" height="16px" viewBox="0 0 16 16" version="1.1" xmlns="http://www.w3.org/2000/svg" xmlns:xlink="http://www.w3.org/1999/xlink">
    <!-- Generator: Sketch 52.6 (67491) - http://www.bohemiancoding.com/sketch -->
    <title>云智大数据平台-16px</title>
    <desc>Created with Sketch.</desc>
    <g id="云智大数据平台-16px" stroke="none" stroke-width="1" fill="none" fill-rule="evenodd">
        <rect id="Rectangle-Copy" fill="#444444" opacity="0" x="0" y="0" width="16" height="16"></rect>
        <path d="M1,15 L15,15 L15,1 L1,1 L1,15 Z M3,13 L13,13 L13,3 L3,3 L3,13 Z M3,7 L7,7 L7,5 L3,5 L3,7 Z M9,7 L11,7 L11,5 L9,5 L9,7 Z M5,11 L7,11 L7,9 L5,9 L5,11 Z M9,11.001 L13,11.001 L13,9 L9,9 L9,11.001 Z" id="Fill-1" fill="#00A4FF"></path>
    </g>
</svg>