<?xml version="1.0" encoding="UTF-8"?>
<svg width="16px" height="16px" viewBox="0 0 16 16" version="1.1" xmlns="http://www.w3.org/2000/svg" xmlns:xlink="http://www.w3.org/1999/xlink">
    <!-- Generator: Sketch 52.2 (67145) - http://www.bohemiancoding.com/sketch -->
    <title>金融服务</title>
    <desc>Created with Sketch.</desc>
    <g id="金融服务" stroke="none" stroke-width="1" fill="none" fill-rule="evenodd">
        <path d="M9,8 L9,9 L12,9 L12,11 L9,11 L9,13 L7,13 L7,11 L4,11 L4,9 L7,9 L7,8 L4,8 L4,6 L5,6 L5,4 L7,4 L7,6 L9,6 L9,4 L11,4 L11,6 L12,6 L12,8 L9,8 Z M8,0 C12.418,0 16,3.582 16,8 C16,12.418 12.418,16 8,16 C3.582,16 0,12.418 0,8 C0,3.582 3.582,0 8,0 Z M8,14 C11.309,14 14,11.309 14,8 C14,4.691 11.309,2 8,2 C4.691,2 2,4.691 2,8 C2,11.309 4.691,14 8,14 Z" id="Combined-Shape" fill="#00A4FF" fill-rule="nonzero"></path>
    </g>
</svg>