<?xml version="1.0" encoding="UTF-8"?>
<svg width="16px" height="16px" viewBox="0 0 16 16" version="1.1" xmlns="http://www.w3.org/2000/svg" xmlns:xlink="http://www.w3.org/1999/xlink">
    <!-- Generator: Sketch 52.2 (67145) - http://www.bohemiancoding.com/sketch -->
    <title>区块链</title>
    <desc>Created with Sketch.</desc>
    <g id="区块链" stroke="none" stroke-width="1" fill="none" fill-rule="evenodd">
        <path d="M8.85,11.4141183 C8.57932654,11.3397297 8.29430295,11.3 8,11.3 C7.70569705,11.3 7.42067346,11.3397297 7.15,11.4141183 L7.15,9.23608969 C6.75737194,8.96558279 6.5,8.51284761 6.5,8 C6.5,7.17157288 7.17157288,6.5 8,6.5 C8.82842712,6.5 9.5,7.17157288 9.5,8 C9.5,8.51284761 9.24262806,8.96558279 8.85,9.23608969 L8.85,11.4141183 Z M10.2568508,5.73138256 L12.5008474,4.44909875 C12.5276854,3.64423781 13.1886078,3 14,3 C14.8284271,3 15.5,3.67157288 15.5,4.5 C15.5,5.01284761 15.2426281,5.46558279 14.85,5.73608969 L14.85,8.41411827 C14.5793265,8.33972968 14.294303,8.3 14,8.3 C13.705697,8.3 13.4206735,8.33972968 13.15,8.41411827 L13.15,6.0361313 L11.1009793,7.20700028 C10.9562026,6.63915507 10.6595579,6.13201396 10.2568508,5.73138256 Z M5.74314925,5.73138256 C5.34044212,6.13201396 5.04379741,6.63915507 4.89902073,7.20700028 L2.85,6.0361313 L2.85,8.41411827 C2.57932654,8.33972968 2.29430295,8.3 2,8.3 C1.70569705,8.3 1.42067346,8.33972968 1.15,8.41411827 L1.15,5.73608969 C0.757371943,5.46558279 0.5,5.01284761 0.5,4.5 C0.5,3.67157288 1.17157288,3 2,3 C2.81139223,3 3.47231465,3.64423781 3.49915258,4.44909875 L5.74314925,5.73138256 Z M8.85,4.91411827 C8.57932654,4.83972968 8.29430295,4.8 8,4.8 C7.70569705,4.8 7.42067346,4.83972968 7.15,4.91411827 L7.15,2.73608969 C6.75737194,2.46558279 6.5,2.01284761 6.5,1.5 C6.5,0.671572875 7.17157288,0 8,0 C8.82842712,0 9.5,0.671572875 9.5,1.5 C9.5,2.01284761 9.24262806,2.46558279 8.85,2.73608969 L8.85,4.91411827 Z M8,16 C7.17157288,16 6.5,15.3284271 6.5,14.5 C6.5,13.6715729 7.17157288,13 8,13 C8.82842712,13 9.5,13.6715729 9.5,14.5 C9.5,15.3284271 8.82842712,16 8,16 Z M2,13 C1.17157288,13 0.5,12.3284271 0.5,11.5 C0.5,10.6715729 1.17157288,10 2,10 C2.82842712,10 3.5,10.6715729 3.5,11.5 C3.5,12.3284271 2.82842712,13 2,13 Z M14,13 C13.1715729,13 12.5,12.3284271 12.5,11.5 C12.5,10.6715729 13.1715729,10 14,10 C14.8284271,10 15.5,10.6715729 15.5,11.5 C15.5,12.3284271 14.8284271,13 14,13 Z" id="Combined-Shape" fill="#00A4FF"></path>
    </g>
</svg>