<?xml version="1.0" encoding="UTF-8"?>
<svg width="16px" height="16px" viewBox="0 0 16 16" version="1.1" xmlns="http://www.w3.org/2000/svg" xmlns:xlink="http://www.w3.org/1999/xlink">
    <!-- Generator: Sketch 52.2 (67145) - http://www.bohemiancoding.com/sketch -->
    <title>互联网中间件</title>
    <desc>Created with Sketch.</desc>
    <g id="互联网中间件" stroke="none" stroke-width="1" fill="none" fill-rule="evenodd">
        <path d="M15,6 L13,6 L13,8 L15,8 L15,14 L12,14 L15,14 L13,12 L7,12 L7,14 L12,14 L1,14 L1,9 L3,9 L3,7 L1,7 L1,1 L15,1 L15,6 Z M3,12 L13,12 L13,3 L3,3 L3,12 Z M13,10 L4,10 L4,8.69722436 L5.13148291,7 L3,7 L3,5 L12,5 L12,6.30277564 L10.8685171,8 L13,8 L13,10 Z M8.46481624,8 L9.13148291,7 L7.53518376,7 L6.86851709,8 L8.46481624,8 Z M14.4142136,16 L11.5857864,16 L9.58578644,14 L7,14 L7,12 L10.4142136,12 L14.4142136,16 Z" id="Combined-Shape" fill="#00A4FF"></path>
    </g>
</svg>