<?xml version="1.0" encoding="UTF-8"?>
<svg width="16px" height="16px" viewBox="0 0 16 16" version="1.1" xmlns="http://www.w3.org/2000/svg" xmlns:xlink="http://www.w3.org/1999/xlink">
    <!-- Generator: Sketch 52.6 (67491) - http://www.bohemiancoding.com/sketch -->
    <title>极光产品-16px</title>
    <desc>Created with Sketch.</desc>
    <g id="极光产品-16px" stroke="none" stroke-width="1" fill="none" fill-rule="evenodd">
        <rect id="Rectangle-Copy" fill="#444444" opacity="0" x="0" y="0" width="16" height="16"></rect>
        <path d="M12.7061,8.7338 L14.6661,6.7738 C15.0511,8.9478 14.4081,11.2698 12.7271,12.9498 C9.9941,15.6838 5.5621,15.6838 2.8291,12.9498 L4.2431,11.5358 C6.1921,13.4848 9.3641,13.4848 11.3131,11.5358 C12.1021,10.7478 12.5551,9.7598 12.7061,8.7338 Z M4.2427,4.4642 C3.4537,5.2532 3.0007,6.2442 2.8497,7.2712 L0.8907,9.2302 C0.5047,7.0542 1.1477,4.7312 2.8287,3.0502 C5.5617,0.3172 9.9937,0.3172 12.7277,3.0502 C12.7287,3.0512 12.7297,3.0512 12.7307,3.0522 L11.3157,4.4662 C11.3157,4.4662 11.3147,4.4652 11.3137,4.4642 C9.3647,2.5152 6.1927,2.5152 4.2427,4.4642 Z M15.5605,4.4603 L11.3045,8.7153 L8.5025,8.7153 L8.4895,8.7033 L12.7325,4.4603 L15.5605,4.4603 Z M7.0679,7.2894 L7.0709,7.2924 L2.8239,11.5394 L0.0039,11.5394 L-0.0001,11.5354 L4.2459,7.2894 L7.0679,7.2894 Z" id="Combined-Shape" fill="#00A4FF"></path>
    </g>
</svg>